<svg width="119" height="33" viewBox="0 0 119 33" fill="none" xmlns="http://www.w3.org/2000/svg">
<path d="M58.48 28H55.72L55 18.67C54.7 15.01 54.53 12.2 54.49 10.24L50.02 25.66H47.35L42.64 10.21C42.64 12.71 42.51 15.6 42.25 18.88L41.56 28H38.86L40.57 7.33H44.41L48.76 22.36L52.9 7.33H56.77L58.48 28ZM74.5396 7.33L74.2096 9.61H66.1996V16.36H73.1596V18.64H66.1996V25.72H74.7796V28H63.3496V7.33H74.5396ZM93.8943 28H90.0843L81.6843 10.45C81.8043 11.83 81.8943 13.11 81.9543 14.29C82.0343 15.45 82.0743 16.86 82.0743 18.52V28H79.4043V7.33H83.1243L91.6143 24.91C91.5543 24.39 91.4743 23.48 91.3743 22.18C91.2743 20.88 91.2243 19.69 91.2243 18.61V7.33H93.8943V28ZM114.043 21.37C114.043 22.75 113.753 23.97 113.173 25.03C112.613 26.07 111.783 26.89 110.683 27.49C109.603 28.07 108.303 28.36 106.783 28.36C104.483 28.36 102.703 27.73 101.443 26.47C100.203 25.19 99.5828 23.49 99.5828 21.37V7.33H102.433V21.16C102.433 22.76 102.793 23.96 103.513 24.76C104.233 25.56 105.323 25.96 106.783 25.96C108.263 25.96 109.363 25.57 110.083 24.79C110.803 23.99 111.163 22.78 111.163 21.16V7.33H114.043V21.37Z" fill="#E0BB6B"/>
<rect y="7" width="29" height="5" fill="#E0BB6B"/>
<rect y="15" width="29" height="5" fill="#E0BB6B"/>
<rect y="23" width="29" height="5" fill="#E0BB6B"/>
</svg>
